<svg id="Layer_1" data-name="Layer 1" xmlns="http://www.w3.org/2000/svg" viewBox="0 0 21.25 18"> <title>hibu-tm</title> 
 <path d="M368.70509,608.32371a.49965.49965,0,0,1-.5-.5v-3.25h-2.752a1.50164,1.50164,0,0,1-1.5-1.5v-11.25a1.50171,1.50171,0,0,1,1.5-1.5h18.25a1.50164,1.50164,0,0,1,1.5,1.5v11.25a1.50157,1.50157,0,0,1-1.5,1.5H373.625l-4.60991,3.6421a.49868.49868,0,0,1-.31.1079Zm-3.252-17a.50037.50037,0,0,0-.5.5v11.25a.50031.50031,0,0,0,.5.5h3.252a.4998.4998,0,0,1,.5.5v2.7178l3.936-3.1099a.5009.5009,0,0,1,.3101-.1079h10.2519a.5003.5003,0,0,0,.5-.5v-11.25a.50037.50037,0,0,0-.5-.5Z"></path> 
 <path d="M380.45309,596.32371h-11.25a.5.5,0,0,1,0-1h11.25a.5.5,0,0,1,0,1Z"></path> 
 <path d="M380.45309,599.40771h-11.25a.5.5,0,0,1,0-1h11.25a.5.5,0,0,1,0,1Z"></path> 
</svg>